<mxfile host="app.diagrams.net" modified="2023-03-14T07:14:32.499Z" agent="5.0 (Macintosh; Intel Mac OS X 10_15_7) AppleWebKit/537.36 (KHTML, like Gecko) Chrome/110.0.0.0 Safari/537.36" etag="IHzqg6RC5l3EupWHzMl8" version="21.0.6" type="github">
  <diagram name="第 1 页" id="m2AoFwnvndb-nhOZfjyy">
    <mxGraphModel dx="1144" dy="647" grid="1" gridSize="10" guides="1" tooltips="1" connect="1" arrows="1" fold="1" page="1" pageScale="1" pageWidth="827" pageHeight="1169" math="0" shadow="0">
      <root>
        <mxCell id="0" />
        <mxCell id="1" parent="0" />
        <mxCell id="7Gjd8Mnpc9KuCSVF13a2-4" style="edgeStyle=orthogonalEdgeStyle;rounded=0;orthogonalLoop=1;jettySize=auto;html=1;exitX=1;exitY=0.5;exitDx=0;exitDy=0;entryX=0;entryY=0.5;entryDx=0;entryDy=0;" edge="1" parent="1" source="7Gjd8Mnpc9KuCSVF13a2-1" target="7Gjd8Mnpc9KuCSVF13a2-2">
          <mxGeometry relative="1" as="geometry" />
        </mxCell>
        <mxCell id="7Gjd8Mnpc9KuCSVF13a2-1" value="请求" style="rounded=0;whiteSpace=wrap;html=1;" vertex="1" parent="1">
          <mxGeometry x="70" y="320" width="120" height="60" as="geometry" />
        </mxCell>
        <mxCell id="7Gjd8Mnpc9KuCSVF13a2-5" style="edgeStyle=orthogonalEdgeStyle;rounded=0;orthogonalLoop=1;jettySize=auto;html=1;exitX=1;exitY=0.5;exitDx=0;exitDy=0;entryX=0;entryY=0.5;entryDx=0;entryDy=0;" edge="1" parent="1" source="7Gjd8Mnpc9KuCSVF13a2-2" target="7Gjd8Mnpc9KuCSVF13a2-3">
          <mxGeometry relative="1" as="geometry" />
        </mxCell>
        <mxCell id="7Gjd8Mnpc9KuCSVF13a2-2" value="API接口层" style="rounded=0;whiteSpace=wrap;html=1;" vertex="1" parent="1">
          <mxGeometry x="294" y="320" width="120" height="60" as="geometry" />
        </mxCell>
        <mxCell id="7Gjd8Mnpc9KuCSVF13a2-3" value="MQ" style="rounded=0;whiteSpace=wrap;html=1;" vertex="1" parent="1">
          <mxGeometry x="520" y="320" width="120" height="60" as="geometry" />
        </mxCell>
      </root>
    </mxGraphModel>
  </diagram>
</mxfile>
